<svg width="588" height="427" viewBox="0 0 588 427" fill="none" xmlns="http://www.w3.org/2000/svg">
<path d="M313.151 245.231C313.162 240.82 316.74 237.25 321.151 237.25L580 237.25C584.418 237.25 588 240.832 588 245.25V300.241C588 304.663 584.413 308.246 579.991 308.241L321.01 307.934C316.588 307.929 313.009 304.337 313.019 299.915L313.151 245.231Z" fill="#55B8FF"/>
<g filter="url(#filter0_f_101_98)">
<path d="M333.74 275.653L369.882 238.376L385.356 253.453L344.417 295.466L333.74 275.653Z" fill="black"/>
</g>
<path d="M412.808 252.242L413.792 271.801L432.697 266.692L414.399 273.672L425.1 290.073L412.808 274.828L400.516 290.073L411.217 273.672L392.919 266.692L411.825 271.801L412.808 252.242Z" fill="black"/>
<rect x="449.406" y="237.211" width="1.30704" height="71.2338" fill="black"/>
<rect x="374.904" y="237.211" width="1.30704" height="71.2338" fill="black"/>
<path d="M294.795 238.089C293.998 235.33 294.742 232.355 296.744 230.295L505.514 15.4545C508.596 12.2827 513.667 12.2136 516.835 15.3001L556.69 54.1361C559.854 57.2196 559.92 62.2845 556.836 65.4489L325.839 302.506C321.557 306.901 314.126 305.038 312.423 299.143L294.795 238.089Z" fill="#55B8FF"/>
<path d="M349.872 232.358C348.205 234.068 346.596 234.372 345.281 233.091L345.231 233.042L346.462 231.778L346.614 231.926C347.136 232.435 347.601 232.379 348.718 231.233C349.703 230.222 349.781 229.839 349.402 229.469C349.057 229.133 348.742 229.203 348.074 229.686L346.303 231.048C345.158 231.903 344.069 232.009 343.151 231.114C342.3 230.285 342.08 228.724 343.928 226.828C345.619 225.092 347.207 225.064 348.395 226.221L348.446 226.27L347.206 227.543L347.088 227.428C346.549 226.902 346.051 226.959 344.959 228.079C344.072 228.989 343.978 229.439 344.34 229.792C344.669 230.113 344.967 230.042 345.511 229.653L347.308 228.315C348.741 227.248 349.8 227.393 350.575 228.148C351.493 229.043 351.621 230.564 349.872 232.358ZM355.004 227.092C353.633 228.499 352.006 228.786 350.506 227.325C349.159 226.011 349.235 224.23 350.59 222.84C351.936 221.458 353.556 221.246 354.878 222.535C355.03 222.683 355.123 222.806 355.25 222.963L351.9 226.4C352.582 226.998 353.155 226.966 353.952 226.149C354.683 225.399 354.743 224.949 354.381 224.596L354.297 224.514L355.528 223.25L355.621 223.34C356.539 224.235 356.309 225.752 355.004 227.092ZM351.551 223.826C350.82 224.575 350.761 225.142 351.251 225.734L353.435 223.493C352.846 222.985 352.273 223.084 351.551 223.826ZM359.007 222.984C358.12 223.894 357.166 224.031 356.458 223.341C355.834 222.734 355.898 221.893 356.684 220.901L358.264 218.909L358.104 218.753C357.556 218.219 357.167 218.316 356.51 218.99C355.886 219.63 355.8 220.056 356.28 220.523L356.314 220.556L355.074 221.828L355.049 221.804C354.004 220.786 354.133 219.204 355.488 217.813C356.859 216.407 358.232 216.447 359.336 217.523L361.813 219.936L360.663 221.116L359.694 220.172L359.629 220.239C360.097 221.073 359.918 222.049 359.007 222.984ZM357.613 221.987C357.841 222.209 358.106 222.122 358.467 221.751C359.304 220.892 359.554 220.232 358.989 219.615L357.728 221.245C357.458 221.573 357.411 221.79 357.613 221.987ZM363.668 218.032L362.437 219.296L356.792 213.795L358.024 212.531L363.668 218.032ZM368.496 213.246C366.674 215.116 364.395 215.163 362.634 213.447C360.874 211.731 360.861 209.452 362.683 207.581C364.547 205.669 366.817 205.631 368.578 207.347C370.339 209.063 370.36 211.334 368.496 213.246ZM367.283 212.064C368.49 210.826 368.52 209.918 367.265 208.695C366.009 207.472 365.103 207.525 363.896 208.764C362.69 210.002 362.684 210.884 363.94 212.107C365.195 213.33 366.076 213.302 367.283 212.064ZM373.169 208.283L371.938 209.546L367.717 205.433L368.858 204.262L370.155 205.527L370.229 205.451C369.628 204.652 369.447 203.489 370.522 202.386C371.647 201.232 372.922 201.406 373.857 202.318L376.486 204.879L375.254 206.143L373.047 203.992C372.373 203.335 371.816 203.334 371.06 204.109C370.28 204.909 370.321 205.508 371.038 206.206L373.169 208.283ZM381.265 199.974L379.435 201.853L372.493 197.684L373.872 196.268L377.739 198.706L379.166 199.719L379.256 199.626L378.272 198.158L375.99 194.095L377.821 192.216L381.934 194.401L383.427 195.346L383.517 195.254L382.467 193.853L379.931 190.051L381.277 188.669L385.617 195.509L383.786 197.388L380.143 195.48L378.131 194.292L378.04 194.384L379.281 196.365L381.265 199.974ZM388.696 192.518C387.809 193.428 386.854 193.565 386.146 192.876C385.523 192.268 385.587 191.427 386.373 190.435L387.953 188.443L387.792 188.287C387.245 187.754 386.855 187.85 386.198 188.524C385.574 189.165 385.488 189.59 385.969 190.058L386.002 190.091L384.763 191.363L384.737 191.338C383.693 190.32 383.822 188.738 385.177 187.348C386.548 185.941 387.921 185.982 389.024 187.057L391.501 189.471L390.352 190.65L389.383 189.706L389.317 189.773C389.786 190.608 389.607 191.583 388.696 192.518ZM387.302 191.521C387.529 191.743 387.794 191.657 388.156 191.286C388.993 190.427 389.242 189.766 388.677 189.15L387.417 190.78C387.147 191.108 387.1 191.324 387.302 191.521ZM393.357 187.567L392.125 188.83L386.481 183.33L387.712 182.066L393.357 187.567ZM395.233 185.641L394.002 186.905L389.781 182.792L390.922 181.621L392.042 182.713L392.116 182.637C391.549 181.854 391.462 180.898 392.291 180.048C393.21 179.104 394.237 179.349 395.062 180.153L395.762 180.835L394.53 182.098L394.092 181.671C393.629 181.22 393.246 181.208 392.745 181.722C392.195 182.287 392.259 182.743 392.79 183.26L395.233 185.641ZM400.123 180.792C398.965 181.98 397.682 181.83 396.738 180.911L394.11 178.349L395.341 177.086L397.549 179.237C398.231 179.902 398.797 179.894 399.577 179.094C400.381 178.268 400.348 177.662 399.632 176.964L397.492 174.878L398.724 173.615L402.945 177.728L401.795 178.907L400.506 177.651L400.441 177.719C401.042 178.518 401.206 179.68 400.123 180.792ZM405.736 175.032C404.348 176.456 403.029 176.698 402.051 175.745L402.026 175.721L403.258 174.457L403.333 174.531C403.713 174.9 404.043 174.763 404.741 174.047C405.398 173.373 405.445 173.106 405.192 172.86C404.956 172.63 404.765 172.691 404.214 173.122L402.913 174.17C401.999 174.923 401.16 175.025 400.453 174.335C399.711 173.613 399.737 172.406 401.149 170.957C402.496 169.576 403.782 169.301 404.809 170.303L404.835 170.327L403.603 171.591L403.553 171.542C403.207 171.205 402.866 171.201 402.111 171.976C401.495 172.608 401.449 172.875 401.718 173.138C401.937 173.351 402.145 173.323 402.754 172.833L403.742 172.038C404.969 171.033 405.758 170.981 406.457 171.662C407.249 172.434 407.008 173.727 405.736 175.032ZM410.683 169.787L409.451 171.051L403.807 165.551L405.038 164.287L410.683 169.787ZM412.559 167.862L411.327 169.126L407.106 165.013L408.248 163.842L409.545 165.106L409.619 165.03C409.018 164.231 408.837 163.069 409.912 161.965C411.037 160.811 412.312 160.986 413.247 161.897L415.875 164.459L414.644 165.722L412.437 163.571C411.763 162.915 411.205 162.913 410.45 163.689C409.67 164.489 409.711 165.087 410.427 165.785L412.559 167.862ZM420.682 159.695C418.859 161.565 416.581 161.611 414.82 159.896C413.059 158.18 413.046 155.901 414.869 154.03C416.732 152.118 419.003 152.08 420.764 153.796C422.524 155.512 422.545 157.783 420.682 159.695ZM419.469 158.513C420.676 157.274 420.705 156.367 419.45 155.144C418.195 153.921 417.289 153.974 416.082 155.212C414.875 156.451 414.87 157.333 416.125 158.556C417.38 159.779 418.262 159.751 419.469 158.513ZM425.354 154.732L424.123 155.995L419.902 151.882L421.043 150.711L422.341 151.975L422.415 151.9C421.814 151.1 421.632 149.938 422.708 148.835C423.833 147.68 425.108 147.855 426.043 148.767L428.671 151.328L427.44 152.592L425.233 150.441C424.559 149.784 424.001 149.783 423.246 150.558C422.466 151.358 422.507 151.957 423.223 152.654L425.354 154.732ZM431.562 148.53C430.191 149.937 428.565 150.224 427.065 148.763C425.717 147.449 425.794 145.668 427.148 144.278C428.495 142.896 430.114 142.684 431.437 143.973C431.589 144.121 431.682 144.244 431.808 144.401L428.459 147.838C429.14 148.436 429.714 148.404 430.51 147.587C431.241 146.837 431.302 146.387 430.939 146.034L430.855 145.952L432.087 144.688L432.179 144.778C433.098 145.673 432.868 147.19 431.562 148.53ZM428.109 145.264C427.379 146.013 427.32 146.58 427.81 147.172L429.994 144.931C429.405 144.423 428.832 144.522 428.109 145.264ZM438.384 141.53C436.57 143.392 434.299 143.429 432.538 141.713C430.778 139.997 430.757 137.727 432.571 135.865C434.279 134.113 436.255 133.837 437.687 135.233L437.813 135.356L436.442 136.763L436.316 136.64C435.575 135.918 434.81 135.994 433.809 137.022C432.602 138.26 432.588 139.151 433.844 140.374C435.099 141.597 435.989 141.561 437.195 140.322C438.197 139.294 438.254 138.528 437.512 137.806L437.386 137.683L438.757 136.276L438.883 136.399C440.316 137.795 440.1 139.769 438.384 141.53ZM442.873 136.755L441.641 138.019L435.997 132.518L437.228 131.254L442.873 136.755ZM440.098 130.298L438.867 131.562L437.873 130.593L439.104 129.329L440.098 130.298ZM444.749 134.83L443.517 136.094L439.296 131.98L440.528 130.717L444.749 134.83ZM447.67 132.001C446.257 133.45 444.495 133.539 443.164 132.242C441.816 130.929 441.868 129.173 443.28 127.724C444.602 126.367 446.23 126.147 447.325 127.214L447.443 127.329L446.22 128.584L446.152 128.519C445.613 127.993 445.033 128.2 444.393 128.857C443.662 129.607 443.604 130.223 444.387 130.987C445.162 131.742 445.777 131.668 446.508 130.918C447.148 130.261 447.34 129.676 446.801 129.151L446.733 129.085L447.957 127.83L448.075 127.945C449.161 129.004 448.991 130.645 447.67 132.001ZM451.571 127.828L450.34 129.092L444.695 123.592L445.927 122.328L448.918 125.242L449.854 124.282L449.337 121.677L450.799 120.177L451.335 123.705L454.995 124.315L453.542 125.807L450.991 125.374L450.047 126.342L451.571 127.828Z" fill="black"/>
<path d="M56.6392 250.846L521.348 3.75576C525.249 1.6815 530.093 3.16246 532.167 7.06357L558.192 56.0089C560.266 59.91 558.785 64.754 554.884 66.8283L90.1755 313.918L56.6392 250.846Z" fill="black"/>
<g clip-path="url(#clip0_101_98)">
<path d="M350.638 139.77C351.284 139.426 351.607 139.255 351.787 138.998C351.946 138.772 352.028 138.501 352.024 138.225C352.018 137.911 351.846 137.588 351.503 136.942L349.171 132.556C348.827 131.91 348.655 131.587 348.398 131.407C348.172 131.249 347.902 131.166 347.626 131.171C347.312 131.176 346.989 131.348 346.343 131.692L338.495 135.864C337.849 136.208 337.526 136.38 337.346 136.637C337.187 136.863 337.105 137.133 337.109 137.409C337.115 137.723 337.287 138.046 337.63 138.693L339.962 143.078C340.306 143.724 340.478 144.048 340.735 144.228C340.961 144.386 341.231 144.469 341.507 144.464C341.821 144.458 342.144 144.286 342.79 143.943L350.638 139.77Z" fill="#55B8FF"/>
<path d="M348.317 135.823C348.402 135.982 348.341 136.18 348.182 136.265C348.023 136.35 347.825 136.289 347.74 136.13C347.655 135.97 347.716 135.773 347.875 135.688C348.035 135.603 348.232 135.664 348.317 135.823Z" fill="#55B8FF"/>
<path d="M341.393 139.505C341.478 139.664 341.417 139.862 341.258 139.947C341.098 140.031 340.901 139.971 340.816 139.812C340.731 139.652 340.792 139.454 340.951 139.37C341.11 139.285 341.308 139.345 341.393 139.505Z" fill="#55B8FF"/>
<path d="M344.8 135.473L343.358 136.24C342.88 136.494 342.698 137.087 342.952 137.565C343.206 138.043 343.8 138.225 344.278 137.971L344.855 137.664C345.333 137.41 345.927 137.591 346.181 138.069C346.435 138.547 346.253 139.141 345.775 139.395L344.333 140.162M343.339 135.509L343.646 136.086M345.487 139.548L345.794 140.125M348.029 135.976L348.034 135.973M341.104 139.658L341.11 139.655M337.63 138.693L339.962 143.078C340.306 143.724 340.478 144.048 340.735 144.228C340.961 144.386 341.231 144.469 341.507 144.464C341.821 144.458 342.144 144.286 342.79 143.943L350.638 139.77C351.284 139.426 351.607 139.255 351.787 138.998C351.946 138.772 352.028 138.501 352.024 138.225C352.018 137.911 351.846 137.588 351.503 136.942L349.171 132.556C348.827 131.91 348.655 131.587 348.398 131.407C348.172 131.249 347.902 131.166 347.626 131.171C347.312 131.176 346.989 131.348 346.343 131.692L338.495 135.864C337.849 136.208 337.526 136.38 337.346 136.637C337.187 136.863 337.105 137.133 337.109 137.409C337.115 137.723 337.287 138.046 337.63 138.693ZM348.317 135.823C348.402 135.982 348.341 136.18 348.182 136.265C348.023 136.35 347.825 136.289 347.74 136.13C347.655 135.97 347.716 135.773 347.875 135.688C348.035 135.603 348.232 135.664 348.317 135.823ZM341.393 139.505C341.478 139.664 341.417 139.862 341.258 139.947C341.098 140.031 340.901 139.971 340.816 139.812C340.731 139.652 340.792 139.454 340.951 139.37C341.11 139.285 341.308 139.345 341.393 139.505Z" stroke="#FF5555" stroke-width="1.30704" stroke-linecap="round" stroke-linejoin="round"/>
</g>
<circle cx="344.567" cy="137.817" r="15.3578" transform="rotate(-28 344.567 137.817)" fill="#55B8FF" stroke="#FF5555" stroke-width="0.653521"/>
<path d="M367.134 119.817L365.576 120.646L361.876 113.687L363.434 112.858L364.903 115.621L368.538 113.688L367.069 110.925L368.627 110.097L372.327 117.056L370.769 117.884L369.283 115.09L365.648 117.023L367.134 119.817ZM375.991 115.241C374.215 116.185 372.457 115.761 371.585 114.12C370.701 112.458 371.338 110.774 373.114 109.83C374.89 108.885 376.642 109.299 377.526 110.961C378.398 112.602 377.767 114.297 375.991 115.241ZM375.257 113.859C376.306 113.302 376.464 112.698 375.978 111.784C375.492 110.87 374.892 110.643 373.843 111.201C372.783 111.764 372.646 112.383 373.132 113.297C373.618 114.211 374.197 114.423 375.257 113.859ZM382.492 111.651L380.55 112.684L376.36 108.237L377.97 107.381L379.848 109.433L380.927 110.938L381.031 110.882L380.502 108.885L380.11 106.243L382.114 105.177L384.075 106.986L385.435 108.541L385.539 108.485L384.906 106.744L384.244 104.045L385.833 103.2L387.125 109.188L385.182 110.22L382.958 108.192L381.812 106.963L381.698 107.024L382.065 108.667L382.492 111.651ZM394.057 105.502L390.702 107.286L387.002 100.327L390.357 98.543C392.59 97.3557 394.693 97.9029 395.852 100.084C397.012 102.265 396.29 104.315 394.057 105.502ZM391.102 99.9452L389.305 100.901L391.514 105.055L393.311 104.1C394.724 103.349 395.08 102.64 394.19 100.968C393.301 99.2955 392.515 99.1941 391.102 99.9452ZM401.207 101.834C399.431 102.778 397.673 102.354 396.8 100.713C395.917 99.0507 396.553 97.3665 398.329 96.4222C400.105 95.4778 401.858 95.8918 402.741 97.5536C403.614 99.1946 402.983 100.889 401.207 101.834ZM400.472 100.452C401.521 99.8943 401.68 99.2905 401.194 98.3765C400.708 97.4624 400.107 97.2354 399.058 97.7932C397.999 98.3565 397.862 98.9756 398.348 99.8896C398.834 100.804 399.413 101.015 400.472 100.452ZM407.576 98.4468C405.842 99.369 404.205 99.1469 403.222 97.2981C402.338 95.6363 402.954 93.9632 404.668 93.052C406.371 92.1463 407.978 92.4376 408.845 94.0682C408.945 94.2552 408.996 94.4013 409.069 94.5889L404.831 96.8421C405.298 97.6198 405.854 97.7637 406.862 97.228C407.786 96.7365 407.981 96.3264 407.743 95.8798L407.688 95.7759L409.246 94.9475L409.307 95.0618C409.909 96.1939 409.228 97.5687 407.576 98.4468ZM405.283 94.2838C404.358 94.7753 404.129 95.2967 404.416 96.0105L407.178 94.5415C406.772 93.8781 406.197 93.7978 405.283 94.2838ZM413.669 95.2072C411.914 96.1405 410.583 95.9686 409.943 94.7637L409.926 94.7326L411.484 93.9042L411.534 93.9977C411.782 94.4651 412.139 94.4351 413.022 93.9657C413.853 93.5239 413.979 93.2839 413.813 92.9723C413.658 92.6815 413.458 92.6812 412.801 92.924L411.243 93.5261C410.144 93.9641 409.313 93.806 408.85 92.9335C408.364 92.0195 408.756 90.8783 410.542 89.9284C412.246 89.0227 413.554 89.153 414.228 90.4202L414.244 90.4513L412.687 91.2797L412.653 91.2174C412.427 90.7916 412.103 90.6839 411.148 91.192C410.369 91.6062 410.243 91.8461 410.42 92.1785C410.563 92.4485 410.77 92.4855 411.499 92.2041L412.682 91.7482C414.157 91.1639 414.925 91.3552 415.383 92.2173C415.902 93.1936 415.279 94.3512 413.669 95.2072ZM419.979 91.719L418.421 92.5473L414.721 85.5884L416.279 84.76L419.979 91.719ZM424.461 89.3359L423.173 90.0207C421.958 90.6668 420.916 90.4877 420.221 89.179L419.138 87.1432L418.318 87.5795L417.633 86.2916L418.453 85.8553L417.918 84.8478L419.476 84.0194L420.011 85.0269L421.694 84.1323L422.379 85.4202L420.696 86.3148L421.685 88.174C421.961 88.6933 422.23 88.7234 422.78 88.4307L423.715 87.9337L424.461 89.3359ZM430.303 86.2296L427.987 87.4611L422.645 81.3747L424.39 80.4469L427.33 83.9465L428.381 85.3463L428.495 85.2855L428.005 83.5875L427.07 79.0221L429.386 77.7906L432.638 81.1244L433.772 82.48L433.886 82.4193L433.313 80.7655L432.056 76.3713L433.759 75.4656L435.808 83.3026L433.491 84.5341L430.603 81.6069L429.049 79.8619L428.934 79.9227L429.512 82.1868L430.303 86.2296ZM440.825 80.7679C439.049 81.7123 437.291 81.288 436.419 79.6469C435.535 77.9851 436.172 76.3009 437.948 75.3566C439.724 74.4122 441.476 74.8262 442.36 76.488C443.232 78.129 442.601 79.8236 440.825 80.7679ZM440.091 79.3865C441.14 78.8287 441.298 78.2249 440.812 77.3108C440.326 76.3968 439.726 76.1698 438.677 76.7276C437.618 77.2909 437.48 77.91 437.966 78.824C438.452 79.738 439.031 79.9498 440.091 79.3865ZM445.935 77.9179L444.377 78.7463L441.61 73.5427L443.054 72.775L443.788 74.1564L443.882 74.1067C443.58 73.1881 443.788 72.2515 444.837 71.6937C446 71.0752 446.903 71.6209 447.444 72.6388L447.903 73.5008L446.345 74.3292L446.058 73.7891C445.754 73.2179 445.393 73.0901 444.759 73.427C444.063 73.797 443.985 74.2515 444.333 74.9058L445.935 77.9179ZM451.422 75.0002L449.864 75.8286L446.164 68.8697L447.722 68.0413L449.683 71.7285L450.867 71.0989L451.169 68.4601L453.018 67.4771L452.453 71.0013L455.753 72.6973L453.915 73.6748L451.617 72.4852L450.423 73.1203L451.422 75.0002ZM458.152 68.4776L456.594 69.306L456.401 68.9424C455.997 68.1842 456.339 67.5494 456.851 66.9578L457.423 66.2804C457.817 65.8179 457.973 65.5351 457.785 65.182C457.597 64.8289 457.246 64.6693 456.041 65.3099C454.774 65.9836 454.567 66.5203 454.92 67.1851L455.135 67.5901L453.598 68.4075L453.449 68.127C452.731 66.7768 453.02 65.0909 455.399 63.8262C457.445 62.7382 458.73 63.2007 459.316 64.3017C459.89 65.3819 459.384 66.2102 458.842 66.8447L458.234 67.5546C457.933 67.9147 457.948 68.0933 458.086 68.353L458.152 68.4776ZM459.497 70.7067L457.711 71.6566L456.81 69.9636L458.597 69.0137L459.497 70.7067Z" fill="white"/>
<path d="M375.392 136.151L374.27 136.747L370.57 129.788L373.977 127.977C375.524 127.154 377.053 127.474 377.876 129.021C378.693 130.558 378.109 132.015 376.561 132.838L374.276 134.053L375.392 136.151ZM374.408 129.04L372.227 130.199L373.74 133.045L375.922 131.886C376.971 131.328 377.301 130.646 376.754 129.618C376.207 128.589 375.457 128.482 374.408 129.04ZM383.648 131.894C381.934 132.806 380.201 132.328 379.356 130.739C378.5 129.129 379.079 127.436 380.792 126.524C382.517 125.608 384.244 126.075 385.1 127.685C385.945 129.274 385.372 130.978 383.648 131.894ZM383.117 130.897C384.374 130.229 384.579 129.361 383.999 128.27C383.414 127.169 382.574 126.843 381.317 127.511C380.071 128.174 379.872 129.052 380.457 130.153C381.037 131.244 381.871 131.56 383.117 130.897ZM389.755 128.513L388.364 129.253L384.071 124.914L385.235 124.296L387.654 126.766L388.6 127.969L388.683 127.925L388.305 126.287L387.883 122.887L389.317 122.125L391.909 124.371L393.056 125.6L393.139 125.555L392.671 124.099L391.975 120.712L393.118 120.104L394.294 126.1L392.903 126.84L390.191 124.472L389.123 123.414L389.039 123.458L389.319 124.935L389.755 128.513ZM399.084 123.686C397.391 124.587 395.772 124.222 394.855 122.498C393.999 120.888 394.526 119.222 396.208 118.328C397.808 117.477 399.368 117.78 400.202 119.349C400.301 119.536 400.368 119.686 400.42 119.859L396.037 122.189C396.608 123.164 397.378 123.434 398.573 122.799C399.653 122.225 399.912 121.634 399.586 121.022L399.542 120.939L400.663 120.342L400.713 120.436C401.299 121.537 400.622 122.869 399.084 123.686ZM396.657 119.222C395.515 119.829 395.287 120.603 395.716 121.561L399.071 119.777L399.06 119.756C398.551 118.801 397.758 118.636 396.657 119.222ZM403.66 121.12L402.539 121.717L399.794 116.554L400.822 116.008L401.562 117.4L401.635 117.361C401.349 116.447 401.556 115.484 402.616 114.921C403.789 114.297 404.746 114.868 405.265 115.844L405.624 116.519L404.512 117.11L404.269 116.653C403.877 115.915 403.383 115.738 402.615 116.147C401.732 116.616 401.628 117.298 402.12 118.222L403.66 121.12ZM410.455 117.641C408.762 118.541 407.142 118.176 406.226 116.452C405.37 114.842 405.896 113.177 407.579 112.282C409.178 111.432 410.738 111.734 411.572 113.303C411.672 113.49 411.738 113.641 411.79 113.813L407.407 116.144C407.979 117.119 408.749 117.389 409.943 116.754C411.023 116.179 411.282 115.589 410.956 114.976L410.912 114.893L412.034 114.296L412.084 114.39C412.669 115.491 411.992 116.823 410.455 117.641ZM408.027 113.176C406.885 113.783 406.657 114.557 407.086 115.515L410.441 113.731L410.43 113.71C409.922 112.755 409.128 112.59 408.027 113.176ZM416.239 114.565C414.608 115.432 413.125 114.822 412.28 113.233C411.424 111.623 411.743 110.068 413.311 109.234C414.537 108.582 415.569 108.846 416.241 109.608L416.303 109.575L414.602 106.376L415.724 105.779L419.424 112.738L418.396 113.285L417.606 111.8L417.533 111.838C417.862 112.983 417.402 113.947 416.239 114.565ZM413.412 112.631C414.069 113.867 414.923 113.946 416.035 113.355C417.136 112.769 417.535 111.891 416.96 110.811L416.916 110.728C416.331 109.627 415.4 109.429 414.247 110.042C413.167 110.616 412.749 111.385 413.412 112.631ZM426.225 109.122L422.184 111.271L418.484 104.312L422.379 102.241C423.709 101.534 424.834 101.721 425.42 102.822C425.856 103.643 425.725 104.499 424.732 105.187L424.77 105.259C426.026 104.765 426.95 105.1 427.436 106.014C428.071 107.208 427.658 108.36 426.225 109.122ZM420.131 104.728L421.147 106.639L423.775 105.242C424.554 104.828 424.789 104.317 424.441 103.663C424.093 103.008 423.569 102.9 422.79 103.315L420.131 104.728ZM421.639 107.564L422.76 109.672L425.564 108.181C426.395 107.739 426.635 107.212 426.232 106.454C425.845 105.727 425.264 105.636 424.443 106.073L421.639 107.564ZM430.954 108.873L430.217 109.265L429.675 108.247L430.683 107.711C431.14 107.468 431.261 107.244 431.229 106.808L431.21 106.472L425.92 102.663L427.177 101.995L429.954 104.035L431.12 105.001L431.203 104.956L431.029 103.451L430.792 100.073L432.028 99.4156L432.38 106.569C432.446 107.72 432.013 108.309 430.954 108.873ZM440.555 101.503L439.443 102.094L436.279 96.1426L433.537 97.6005L433.001 96.5931L439.586 93.0917L440.122 94.0992L437.39 95.5517L440.555 101.503ZM445.514 98.9993C444.444 99.5682 443.504 99.4286 443.051 98.5769C442.626 97.7771 443.049 97.0193 444.006 96.3638L446.221 94.8664L446.061 94.5652C445.608 93.7135 445.074 93.6111 444.087 94.1358C443.132 94.6439 442.83 95.204 443.233 95.9622L443.255 96.0037L442.144 96.5946L442.122 96.5531C441.498 95.3794 442.005 93.9775 443.646 93.1049C445.287 92.2323 446.499 92.7335 447.156 93.9694L448.824 97.1061L447.796 97.6529L447.111 96.365L447.038 96.4036C447.232 97.4197 446.688 98.3753 445.514 98.9993ZM444.134 97.9077C444.355 98.3232 444.741 98.3714 445.384 98.029C446.558 97.405 447.116 96.549 446.574 95.5312L444.671 96.8366C444.128 97.2185 443.919 97.5027 444.134 97.9077ZM453.211 94.7734L452.027 95.403C450.916 95.9939 449.971 95.8702 449.303 94.6134L447.983 92.1311L447.11 92.595L446.613 91.6602L447.486 91.1963L446.884 90.0642L447.995 89.4733L448.597 90.6054L450.467 89.6113L450.964 90.5461L449.094 91.5402L450.381 93.9602C450.718 94.5938 451.097 94.6053 451.741 94.2629L452.676 93.7659L453.211 94.7734ZM456.118 93.361C454.664 94.1342 453.444 93.5438 452.809 92.3493L451.158 89.2438L452.269 88.6528L453.76 91.4572C454.274 92.4231 454.98 92.6738 456.071 92.0939C457.213 91.4865 457.434 90.6232 456.837 89.5014L455.479 86.9464L456.59 86.3555L459.335 91.5175L458.306 92.0643L457.456 90.4647L457.394 90.4979C457.691 91.4587 457.448 92.6541 456.118 93.361ZM461.476 90.3792L460.354 90.9757L457.609 85.8136L458.637 85.2669L459.466 86.8248L459.528 86.7917C459.205 85.8578 459.34 84.7598 460.628 84.075C461.802 83.451 462.817 83.8308 463.487 84.7402L463.549 84.707C463.215 83.7524 463.36 82.6226 464.669 81.9268C466.008 81.2144 467.17 81.7694 467.832 83.0158L469.484 86.1213L468.372 86.7122L466.881 83.9079C466.34 82.89 465.703 82.6692 464.706 83.1993C463.605 83.7847 463.508 84.5555 464.116 85.698L465.474 88.253L464.363 88.8439L462.872 86.0396C462.331 85.0217 461.704 84.7954 460.707 85.3255C459.596 85.9164 459.51 86.6816 460.117 87.8242L461.476 90.3792ZM472.989 84.2575L471.742 84.9202L471.148 76.3101L472.727 75.4706L479.532 80.7783L478.265 81.4521L476.504 80.0701L472.828 82.0251L472.989 84.2575ZM472.557 78.1587L472.739 80.7801L475.522 79.3L473.45 77.6838L472.521 76.9124L472.438 76.9566L472.557 78.1587ZM481.173 79.9057L480.052 80.5022L477.307 75.3401L478.335 74.7934L479.186 76.3929L479.258 76.3542C478.95 75.3989 479.194 74.2035 480.503 73.5077C481.936 72.7456 483.156 73.336 483.791 74.5304L485.442 77.636L484.32 78.2324L482.829 75.4281C482.316 74.4621 481.62 74.2059 480.55 74.7747C479.418 75.3767 479.218 76.2289 479.815 77.3507L481.173 79.9057ZM488.772 75.9989C487.141 76.866 485.657 76.2559 484.812 74.6667C483.956 73.0568 484.275 71.5017 485.844 70.6678C487.069 70.0161 488.102 70.2797 488.774 71.0417L488.836 71.0086L487.135 67.8095L488.257 67.2131L491.957 74.172L490.929 74.7188L490.139 73.2335L490.066 73.2721C490.395 74.4164 489.935 75.3804 488.772 75.9989ZM485.945 74.0648C486.602 75.3008 487.456 75.3793 488.568 74.7884C489.668 74.203 490.067 73.3247 489.493 72.2445L489.449 72.1615C488.864 71.0605 487.932 70.8628 486.78 71.4758C485.699 72.0501 485.282 72.8184 485.945 74.0648ZM497.885 71.02L496.234 71.8981L490.695 65.9166L491.941 65.2539L495.415 69.0558L496.511 70.365L496.594 70.3208L496.184 68.6471L495.244 63.4977L496.875 62.6307L500.712 66.2393L501.891 67.5043L501.974 67.4601L501.481 65.8306L500.178 60.8745L501.403 60.2228L503.359 68.1096L501.707 68.9877L498.151 65.6825L496.692 64.1666L496.599 64.2163L497.05 66.2679L497.885 71.02ZM507.336 66.1281C506.266 66.697 505.326 66.5574 504.873 65.7057C504.448 64.9059 504.871 64.1481 505.828 63.4926L508.043 61.9952L507.882 61.694C507.43 60.8423 506.896 60.74 505.909 61.2646C504.953 61.7727 504.652 62.3328 505.055 63.091L505.077 63.1325L503.965 63.7235L503.943 63.6819C503.319 62.5082 503.826 61.1063 505.467 60.2337C507.108 59.3611 508.321 59.8623 508.978 61.0983L510.646 64.235L509.617 64.7817L508.933 63.4938L508.86 63.5324C509.054 64.5485 508.509 65.5041 507.336 66.1281ZM505.956 65.0366C506.177 65.452 506.562 65.5002 507.206 65.1578C508.38 64.5338 508.937 63.6778 508.396 62.66L506.492 63.9654C505.949 64.3474 505.741 64.6315 505.956 65.0366ZM512.769 63.1061L511.647 63.7026L507.947 56.7436L509.069 56.1472L512.769 63.1061ZM514.929 61.9574L513.808 62.5538L511.063 57.3917L512.091 56.845L512.831 58.2368L512.904 58.1981C512.618 57.2844 512.825 56.3214 513.885 55.7581C515.058 55.1341 516.015 55.7048 516.534 56.6811L516.893 57.3562L515.781 57.9471L515.538 57.4901C515.146 56.7527 514.652 56.5756 513.884 56.9843C513.001 57.4537 512.897 58.1352 513.388 59.0596L514.929 61.9574ZM521.277 58.7155C519.823 59.4886 518.603 58.8982 517.968 57.7038L516.317 54.5982L517.428 54.0073L518.919 56.8117C519.433 57.7776 520.139 58.0283 521.229 57.4484C522.372 56.8409 522.592 55.9776 521.996 54.8559L520.637 52.3008L521.749 51.7099L524.493 56.872L523.465 57.4187L522.615 55.8192L522.552 55.8523C522.85 56.8132 522.606 58.0086 521.277 58.7155ZM528.009 55.1362C526.347 56.0198 525.054 55.868 524.419 54.6736L524.402 54.6424L525.524 54.046L525.568 54.1291C525.927 54.8042 526.448 54.8069 527.528 54.2326C528.536 53.6969 528.726 53.329 528.483 52.872C528.257 52.4461 527.936 52.4437 527.143 52.7319L525.631 53.296C524.589 53.6905 523.776 53.5898 523.317 52.7278C522.837 51.8241 523.315 50.7439 524.904 49.8989C526.483 49.0595 527.775 49.185 528.427 50.4106L528.444 50.4418L527.332 51.0327L527.299 50.9704C526.973 50.3576 526.49 50.2013 525.348 50.8087C524.403 51.3113 524.181 51.6957 524.44 52.1839C524.656 52.589 524.941 52.6239 525.775 52.3136L527.058 51.8447C528.366 51.3488 529.148 51.4661 529.601 52.3178C530.115 53.2837 529.463 54.363 528.009 55.1362Z" fill="white"/>
<g clip-path="url(#clip1_101_98)">
<path d="M103.053 259.9C102.926 259.661 102.863 259.541 102.847 259.427C102.82 259.236 102.879 259.043 103.008 258.899C103.086 258.813 103.205 258.75 103.444 258.623L108.701 255.828C108.94 255.701 109.059 255.637 109.173 255.621C109.365 255.594 109.558 255.653 109.702 255.783C109.787 255.86 109.851 255.979 109.978 256.218L111.682 259.424C112.699 261.336 111.973 263.71 110.061 264.727C108.149 265.743 105.775 265.017 104.758 263.105L103.053 259.9Z" fill="#55B8FF"/>
<path d="M109.187 270.043C108.585 268.91 109.015 267.503 110.148 266.901L111.815 266.014C112.948 265.412 114.355 265.842 114.957 266.975C115.033 267.117 114.979 267.293 114.837 267.368L109.58 270.163C109.438 270.239 109.262 270.185 109.187 270.043Z" fill="#55B8FF"/>
<path d="M110.061 264.727C108.149 265.743 105.775 265.017 104.758 263.105L103.053 259.9C102.926 259.661 102.863 259.541 102.847 259.427C102.82 259.236 102.879 259.043 103.008 258.899C103.086 258.813 103.205 258.75 103.444 258.623L108.701 255.828C108.94 255.701 109.059 255.637 109.173 255.621C109.365 255.594 109.558 255.653 109.702 255.783C109.787 255.86 109.851 255.979 109.978 256.218L111.682 259.424C112.699 261.336 111.973 263.71 110.061 264.727ZM110.061 264.727L110.981 266.458M110.148 256.538L111.591 255.771C111.86 255.628 111.994 255.557 112.123 255.545C112.296 255.528 112.468 255.581 112.602 255.691C112.702 255.773 112.774 255.908 112.916 256.177L113.07 256.465C113.355 257.002 113.498 257.27 113.556 257.522C113.714 258.204 113.495 258.919 112.983 259.397C112.794 259.573 112.526 259.715 111.989 260.001M103.224 260.22L101.781 260.987C101.512 261.13 101.378 261.202 101.295 261.302C101.185 261.436 101.132 261.608 101.149 261.78C101.162 261.91 101.233 262.044 101.376 262.313L101.529 262.601C101.815 263.138 101.957 263.406 102.133 263.595C102.611 264.107 103.326 264.326 104.008 264.168C104.26 264.11 104.528 263.968 105.065 263.682M109.58 270.163L114.837 267.368C114.979 267.293 115.033 267.117 114.957 266.975C114.355 265.842 112.948 265.412 111.815 266.014L110.148 266.901C109.015 267.503 108.585 268.91 109.187 270.043C109.262 270.185 109.438 270.239 109.58 270.163Z" stroke="#FF5555" stroke-width="1.30704" stroke-linecap="round" stroke-linejoin="round"/>
</g>
<circle cx="109.141" cy="262.996" r="15.3578" transform="rotate(-28 109.141 262.996)" fill="#55B8FF" stroke="#FF5555" stroke-width="0.653521"/>
<path d="M133.805 243.88L131.489 245.111L126.148 239.025L127.893 238.097L130.833 241.597L131.884 242.997L131.998 242.936L131.508 241.238L130.573 236.672L132.889 235.441L136.14 238.775L137.274 240.13L137.388 240.07L136.815 238.416L135.558 234.022L137.262 233.116L139.31 240.953L136.994 242.184L134.105 239.257L132.551 237.512L132.437 237.573L133.015 239.837L133.805 243.88ZM143.057 238.961L141.499 239.789L137.799 232.83L139.357 232.002L141.136 235.346L141.219 235.302C140.915 234.331 141.097 233.195 142.427 232.488C143.829 231.742 145.001 232.292 145.641 233.497L147.337 236.685L145.779 237.514L144.332 234.792C143.868 233.92 143.328 233.807 142.352 234.326C141.303 234.884 141.207 235.481 141.671 236.354L143.057 238.961ZM149.778 235.521C148.656 236.117 147.705 235.957 147.241 235.084C146.832 234.316 147.149 233.534 148.2 232.829L150.311 231.413L150.207 231.216C149.848 230.541 149.447 230.514 148.616 230.956C147.827 231.375 147.615 231.754 147.93 232.346L147.952 232.388L146.384 233.222L146.367 233.191C145.682 231.903 146.288 230.435 148.001 229.524C149.736 228.602 151.031 229.059 151.755 230.419L153.378 233.473L151.924 234.246L151.289 233.051L151.206 233.096C151.398 234.033 150.93 234.908 149.778 235.521ZM148.754 234.146C148.903 234.427 149.182 234.425 149.639 234.182C150.698 233.619 151.137 233.066 150.786 232.306L149.09 233.475C148.732 233.705 148.621 233.897 148.754 234.146ZM157.835 231.103L156.547 231.788C155.331 232.434 154.29 232.255 153.594 230.946L152.512 228.911L151.691 229.347L151.007 228.059L151.827 227.623L151.291 226.615L152.849 225.787L153.385 226.794L155.068 225.9L155.752 227.188L154.07 228.082L155.058 229.942C155.335 230.461 155.604 230.491 156.154 230.198L157.089 229.701L157.835 231.103ZM161.579 229.113L160.021 229.941L156.32 222.982L157.878 222.154L161.579 229.113ZM165.077 227.386C163.322 228.319 161.991 228.147 161.351 226.942L161.334 226.911L162.892 226.083L162.942 226.176C163.19 226.644 163.547 226.614 164.43 226.144C165.261 225.702 165.387 225.462 165.221 225.151C165.066 224.86 164.866 224.86 164.209 225.102L162.651 225.705C161.552 226.143 160.722 225.984 160.258 225.112C159.772 224.198 160.164 223.057 161.951 222.107C163.654 221.201 164.962 221.332 165.636 222.599L165.653 222.63L164.095 223.458L164.061 223.396C163.835 222.97 163.511 222.862 162.556 223.37C161.777 223.785 161.651 224.025 161.828 224.357C161.972 224.627 162.178 224.664 162.907 224.383L164.091 223.927C165.565 223.342 166.333 223.534 166.791 224.396C167.311 225.372 166.687 226.53 165.077 227.386ZM171.387 223.897L169.829 224.726L166.129 217.767L167.687 216.939L171.387 223.897ZM175.869 221.514L174.581 222.199C173.366 222.845 172.324 222.666 171.629 221.357L170.546 219.322L169.726 219.758L169.041 218.47L169.861 218.034L169.326 217.026L170.884 216.198L171.419 217.205L173.102 216.311L173.787 217.599L172.104 218.493L173.093 220.353C173.369 220.872 173.638 220.902 174.188 220.609L175.123 220.112L175.869 221.514ZM178.441 217.202L176.883 218.031L176.69 217.667C176.287 216.909 176.629 216.274 177.14 215.682L177.713 215.005C178.106 214.543 178.262 214.26 178.075 213.907C177.887 213.554 177.535 213.394 176.331 214.035C175.063 214.708 174.856 215.245 175.209 215.91L175.425 216.315L173.887 217.132L173.738 216.852C173.02 215.501 173.31 213.816 175.688 212.551C177.734 211.463 179.019 211.925 179.605 213.026C180.179 214.107 179.674 214.935 179.132 215.569L178.523 216.279C178.222 216.639 178.237 216.818 178.375 217.078L178.441 217.202ZM179.786 219.431L178 220.381L177.1 218.688L178.886 217.738L179.786 219.431Z" fill="white"/>
<path d="M142.832 259.805L141.243 260.65L134.573 255.27L135.902 254.564L141.41 259.109L141.493 259.065L140.784 251.968L142.103 251.267L142.832 259.805ZM148.931 256.696C147.238 257.596 145.618 257.231 144.702 255.507C143.846 253.897 144.372 252.232 146.055 251.337C147.654 250.486 149.214 250.789 150.048 252.358C150.148 252.545 150.215 252.696 150.266 252.868L145.883 255.199C146.455 256.174 147.225 256.444 148.419 255.809C149.499 255.234 149.758 254.644 149.432 254.031L149.388 253.948L150.51 253.351L150.56 253.445C151.145 254.546 150.468 255.878 148.931 256.696ZM146.503 252.231C145.361 252.838 145.133 253.612 145.562 254.57L148.917 252.786L148.906 252.765C148.398 251.81 147.604 251.645 146.503 252.231ZM153.507 254.129L152.385 254.726L149.64 249.564L150.669 249.017L151.409 250.409L151.481 250.37C151.195 249.456 151.403 248.493 152.462 247.93C153.636 247.306 154.592 247.877 155.111 248.853L155.47 249.528L154.359 250.119L154.116 249.662C153.724 248.925 153.23 248.748 152.461 249.156C151.578 249.626 151.474 250.307 151.966 251.231L153.507 254.129ZM155.706 245.566L154.584 246.162L153.949 244.968L155.071 244.371L155.706 245.566ZM158.771 251.33L157.649 251.927L154.904 246.765L156.026 246.168L158.771 251.33ZM161.326 249.972L160.204 250.568L157.957 246.341L157.178 246.755L156.681 245.82L157.47 245.401C156.993 244.202 157.501 243.079 158.966 242.3L159.475 242.03L159.917 242.861L159.231 243.225C158.411 243.661 158.101 244.106 158.561 244.821L160.43 243.827L160.927 244.761L159.078 245.744L161.326 249.972ZM161.855 242.296L160.733 242.893L160.098 241.698L161.22 241.102L161.855 242.296ZM164.92 248.061L163.798 248.657L161.053 243.495L162.175 242.899L164.92 248.061ZM167.528 246.807C166.458 247.376 165.518 247.237 165.065 246.385C164.64 245.585 165.063 244.827 166.02 244.172L168.235 242.674L168.075 242.373C167.622 241.521 167.088 241.419 166.101 241.944C165.146 242.452 164.844 243.012 165.247 243.77L165.269 243.812L164.158 244.403L164.136 244.361C163.512 243.187 164.018 241.785 165.66 240.913C167.301 240.04 168.513 240.541 169.17 241.777L170.838 244.914L169.81 245.461L169.125 244.173L169.052 244.212C169.246 245.228 168.702 246.183 167.528 246.807ZM166.148 245.716C166.369 246.131 166.754 246.179 167.398 245.837C168.572 245.213 169.13 244.357 168.588 243.339L166.684 244.645C166.141 245.026 165.933 245.311 166.148 245.716ZM172.868 243.835L171.839 244.382L168.139 237.423L169.261 236.826L170.962 240.025L171.024 239.992C170.768 239.009 171.117 238.011 172.353 237.354C173.942 236.509 175.389 237.125 176.245 238.735C177.09 240.324 176.787 241.884 175.145 242.757C173.972 243.381 172.915 243.223 172.151 242.311L172.078 242.35L172.868 243.835ZM171.619 241.261C172.193 242.342 173.134 242.507 174.246 241.917C175.378 241.315 175.78 240.568 175.123 239.332C174.46 238.085 173.6 237.996 172.499 238.582C171.336 239.2 170.989 240.077 171.575 241.178L171.619 241.261ZM179.513 240.301L178.392 240.898L174.692 233.939L175.813 233.342L179.513 240.301ZM183.204 238.472C181.511 239.372 179.892 239.008 178.975 237.284C178.119 235.674 178.645 234.008 180.328 233.113C181.928 232.263 183.488 232.566 184.321 234.134C184.421 234.321 184.488 234.472 184.539 234.645L180.156 236.975C180.728 237.95 181.498 238.22 182.692 237.585C183.773 237.011 184.031 236.42 183.706 235.807L183.661 235.724L184.783 235.128L184.833 235.221C185.418 236.322 184.741 237.655 183.204 238.472ZM180.777 234.007C179.634 234.615 179.406 235.389 179.835 236.346L183.19 234.563L183.179 234.542C182.671 233.586 181.878 233.422 180.777 234.007ZM189.16 235.172L187.914 235.835L187.319 227.224L188.898 226.385L195.704 231.693L194.437 232.366L192.676 230.984L188.999 232.939L189.16 235.172ZM188.729 229.073L188.91 231.695L191.694 230.214L189.622 228.598L188.692 227.827L188.609 227.871L188.729 229.073ZM197.345 230.82L196.223 231.417L192.523 224.458L193.645 223.861L197.345 230.82ZM205.726 226.364L200.159 229.324L196.458 222.365L202.026 219.405L202.561 220.413L198.116 222.776L199.154 224.729L203.444 222.448L203.974 223.445L199.684 225.726L200.745 227.72L205.19 225.356L205.726 226.364ZM207.451 225.447L206.111 226.159L206.975 222.422L206.942 222.36L203.367 220.997L204.727 220.273L207.479 221.315L207.541 221.282L208.196 218.429L209.546 217.711L208.666 221.417L208.699 221.479L212.291 222.873L210.931 223.596L208.168 222.534L208.095 222.573L207.451 225.447ZM214.898 223.752L213.776 224.348L210.093 217.421L211.121 216.874L211.883 218.307L211.976 218.257C211.676 217.191 212.094 216.223 213.309 215.577C214.909 214.727 216.392 215.337 217.243 216.936C218.093 218.536 217.785 220.085 216.175 220.941C215.011 221.56 213.938 221.345 213.227 220.51L213.186 220.532L214.898 223.752ZM212.634 219.493C213.197 220.553 214.148 220.713 215.249 220.128C216.361 219.537 216.778 218.769 216.121 217.533C215.458 216.286 214.583 216.219 213.503 216.793C212.35 217.406 211.993 218.289 212.584 219.4L212.634 219.493ZM220.511 218.502L219.39 219.099L215.69 212.14L216.811 211.543L220.511 218.502ZM224.244 216.651C222.53 217.562 220.797 217.085 219.952 215.496C219.096 213.886 219.675 212.192 221.388 211.281C223.113 210.365 224.84 210.832 225.696 212.442C226.541 214.031 225.968 215.734 224.244 216.651ZM223.713 215.654C224.97 214.986 225.175 214.118 224.595 213.027C224.009 211.926 223.17 211.6 221.913 212.268C220.667 212.931 220.468 213.809 221.053 214.91C221.633 216.001 222.467 216.317 223.713 215.654ZM229.001 213.988L227.879 214.585L225.135 209.423L226.163 208.876L226.903 210.268L226.976 210.229C226.69 209.315 226.897 208.352 227.957 207.789C229.13 207.165 230.087 207.736 230.606 208.712L230.965 209.387L229.853 209.978L229.61 209.521C229.218 208.783 228.724 208.606 227.956 209.015C227.073 209.484 226.969 210.166 227.46 211.09L229.001 213.988ZM235.796 210.509C234.103 211.409 232.483 211.044 231.566 209.32C230.71 207.71 231.237 206.045 232.92 205.15C234.519 204.3 236.079 204.603 236.913 206.171C237.012 206.358 237.079 206.509 237.131 206.681L232.748 209.012C233.32 209.987 234.089 210.257 235.284 209.622C236.364 209.047 236.623 208.457 236.297 207.844L236.253 207.761L237.375 207.164L237.424 207.258C238.01 208.359 237.333 209.691 235.796 210.509ZM233.368 206.044C232.226 206.651 231.998 207.425 232.427 208.383L235.782 206.599L235.771 206.578C235.263 205.623 234.469 205.459 233.368 206.044ZM240.372 207.942L239.25 208.539L236.505 203.377L237.533 202.83L238.273 204.222L238.346 204.183C238.06 203.269 238.267 202.307 239.327 201.743C240.501 201.119 241.457 201.69 241.976 202.666L242.335 203.341L241.224 203.932L240.981 203.475C240.588 202.738 240.095 202.561 239.326 202.969C238.443 203.439 238.339 204.12 238.831 205.045L240.372 207.942ZM249.761 203.083C247.58 204.243 245.385 203.598 244.231 201.427C243.077 199.256 243.77 197.076 245.951 195.916C248.153 194.746 250.337 195.396 251.491 197.567C252.646 199.738 251.963 201.912 249.761 203.083ZM249.187 202.003C250.839 201.125 251.23 199.931 250.307 198.196C249.385 196.462 248.171 196.108 246.52 196.986C244.868 197.864 244.493 199.063 245.415 200.797C246.338 202.532 247.536 202.881 249.187 202.003ZM255.292 200.009L254.17 200.606L251.425 195.444L252.454 194.897L253.304 196.496L253.377 196.458C253.069 195.502 253.312 194.307 254.621 193.611C256.055 192.849 257.274 193.439 257.909 194.634L259.561 197.739L258.439 198.336L256.948 195.531C256.434 194.566 255.739 194.309 254.669 194.878C253.537 195.48 253.337 196.332 253.933 197.454L255.292 200.009ZM265.309 194.816C263.232 195.921 261.686 195.57 260.908 194.105L260.875 194.043L261.996 193.447L262.085 193.613C262.527 194.444 263.236 194.6 264.762 193.788C266.092 193.081 266.405 192.542 266.057 191.887C265.736 191.285 265.262 191.244 264.291 191.547L262.438 192.173C261.154 192.589 260.036 192.491 259.428 191.348C258.893 190.341 259.182 188.881 261.343 187.732C263.379 186.65 264.844 187.176 265.568 188.537L265.601 188.599L264.489 189.19L264.418 189.055C263.965 188.203 263.229 188.048 261.786 188.816C260.518 189.49 260.186 190.066 260.517 190.689C260.837 191.292 261.295 191.301 262.21 191.042L264.057 190.432C265.582 189.942 266.604 190.211 267.145 191.229C267.709 192.288 267.366 193.723 265.309 194.816ZM272.244 191.129C270.167 192.233 268.397 191.762 267.392 189.872L265.227 185.8L266.339 185.209L268.465 189.208C269.21 190.61 270.143 190.86 271.67 190.049C273.196 189.237 273.51 188.324 272.765 186.922L270.639 182.923L271.76 182.326L273.925 186.398C274.93 188.288 274.332 190.019 272.244 191.129ZM277.576 188.16L276.454 188.757L272.754 181.798L273.876 181.201L277.576 188.16Z" fill="white"/>
<line x1="308.912" y1="136.976" x2="307.498" y2="177.47" stroke="white" stroke-width="0.653522"/>
<path d="M459.632 266.549H457.868V258.667H459.632V261.797H463.749V258.667H465.514V266.549H463.749V263.385H459.632V266.549ZM469.601 266.667C467.59 266.667 466.237 265.467 466.237 263.608C466.237 261.726 467.59 260.538 469.601 260.538C471.613 260.538 472.965 261.726 472.965 263.608C472.965 265.467 471.613 266.667 469.601 266.667ZM469.601 265.102C470.789 265.102 471.213 264.643 471.213 263.608C471.213 262.573 470.789 262.091 469.601 262.091C468.401 262.091 467.99 262.573 467.99 263.608C467.99 264.643 468.401 265.102 469.601 265.102ZM477.027 266.549H474.827L473.216 260.655H475.039L475.733 263.349L475.98 265.184H476.098L476.568 263.173L477.462 260.655H479.732L480.615 263.173L481.085 265.184H481.203L481.462 263.349L482.144 260.655H483.944L482.273 266.549H480.074L479.062 263.714L478.627 262.091H478.497L478.05 263.714L477.027 266.549ZM490.618 266.549H488.854V260.256H485.925V258.667H493.547V260.256H490.618V266.549ZM497.321 266.667C495.309 266.667 493.957 265.467 493.957 263.608C493.957 261.726 495.309 260.538 497.321 260.538C499.332 260.538 500.685 261.726 500.685 263.608C500.685 265.467 499.332 266.667 497.321 266.667ZM497.321 265.102C498.509 265.102 498.932 264.643 498.932 263.608C498.932 262.573 498.509 262.091 497.321 262.091C496.121 262.091 495.709 262.573 495.709 263.608C495.709 264.643 496.121 265.102 497.321 265.102ZM506.938 266.667C504.527 266.667 503.044 265.067 503.044 262.608C503.044 260.15 504.715 258.55 507.42 258.55C509.891 258.55 511.455 259.703 511.455 261.597V261.691H509.491V261.597C509.491 260.679 508.891 260.244 507.373 260.244C505.585 260.244 504.915 260.855 504.915 262.608C504.915 264.361 505.562 264.973 507.291 264.973C509.103 264.973 509.655 264.69 509.702 263.69H507.032V262.385H511.467V266.549H509.832V264.855H509.738C509.467 265.89 508.644 266.667 506.938 266.667ZM515.46 266.667C513.495 266.667 512.154 265.702 512.154 263.608C512.154 261.726 513.483 260.538 515.424 260.538C517.354 260.538 518.636 261.55 518.636 263.396C518.636 263.608 518.612 263.761 518.589 263.961H513.789C513.836 264.867 514.26 265.255 515.401 265.255C516.448 265.255 516.812 264.984 516.812 264.479V264.361H518.577V264.49C518.577 265.773 517.33 266.667 515.46 266.667ZM515.389 261.914C514.342 261.914 513.895 262.267 513.813 263.032H516.942C516.895 262.255 516.424 261.914 515.389 261.914ZM523.537 266.549H522.078C520.702 266.549 519.866 265.902 519.866 264.42V262.114H518.937V260.655H519.866V259.514H521.631V260.655H523.537V262.114H521.631V264.22C521.631 264.808 521.854 264.961 522.478 264.961H523.537V266.549ZM529.588 266.667C527.201 266.667 525.86 265.726 525.86 263.89V263.82H527.624V264.032C527.624 264.761 527.989 265.055 529.588 265.055C531 265.055 531.329 264.843 531.329 264.314C531.329 263.832 531.059 263.655 530.247 263.514L528.036 263.196C526.624 262.973 525.789 262.267 525.789 260.985C525.789 259.797 526.754 258.55 529.4 258.55C531.824 258.55 532.953 259.667 532.953 261.326V261.397H531.177V261.232C531.177 260.479 530.788 260.161 529.224 260.161C527.953 260.161 527.565 260.408 527.565 260.914C527.565 261.373 527.824 261.538 528.483 261.655L530.694 262.008C532.459 262.291 533.094 263.149 533.094 264.232C533.094 265.514 532.094 266.667 529.588 266.667ZM537.965 266.549H536.506C535.13 266.549 534.295 265.902 534.295 264.42V262.114H533.366V260.655H534.295V259.514H536.059V260.655H537.965V262.114H536.059V264.22C536.059 264.808 536.283 264.961 536.906 264.961H537.965V266.549ZM540.437 266.667C539.167 266.667 538.402 266.078 538.402 265.09C538.402 264.22 539.049 263.679 540.308 263.549L542.837 263.29V263.067C542.837 262.302 542.496 262.091 541.555 262.091C540.661 262.091 540.296 262.326 540.296 262.996V263.043H538.52V263.008C538.52 261.55 539.743 260.538 541.684 260.538C543.649 260.538 544.578 261.55 544.578 263.091V266.549H542.931V265.196H542.837C542.567 266.114 541.743 266.667 540.437 266.667ZM540.179 264.973C540.179 265.29 540.426 265.42 540.943 265.42C542.143 265.42 542.79 265.137 542.837 264.302L540.79 264.537C540.367 264.573 540.179 264.69 540.179 264.973ZM547.237 266.549H545.473V260.655H547.108V262.22H547.214C547.378 261.267 548.002 260.538 549.19 260.538C550.507 260.538 551.048 261.444 551.048 262.596V263.573H549.284V262.961C549.284 262.314 549.025 262.032 548.308 262.032C547.519 262.032 547.237 262.396 547.237 263.138V266.549ZM555.84 266.549H554.381C553.005 266.549 552.17 265.902 552.17 264.42V262.114H551.24V260.655H552.17V259.514H553.934V260.655H555.84V262.114H553.934V264.22C553.934 264.808 554.158 264.961 554.781 264.961H555.84V266.549ZM559.63 266.667C557.665 266.667 556.324 265.702 556.324 263.608C556.324 261.726 557.654 260.538 559.595 260.538C561.524 260.538 562.806 261.55 562.806 263.396C562.806 263.608 562.782 263.761 562.759 263.961H557.959C558.006 264.867 558.43 265.255 559.571 265.255C560.618 265.255 560.983 264.984 560.983 264.479V264.361H562.747V264.49C562.747 265.773 561.5 266.667 559.63 266.667ZM559.559 261.914C558.512 261.914 558.065 262.267 557.983 263.032H561.112C561.065 262.255 560.594 261.914 559.559 261.914ZM566.189 266.667C564.354 266.667 563.342 265.467 563.342 263.608C563.342 261.726 564.342 260.538 566.095 260.538C567.495 260.538 568.212 261.232 568.412 262.22H568.518V258.667H570.283V266.549H568.636V264.914H568.542C568.318 266.078 567.542 266.667 566.189 266.667ZM565.13 263.608C565.13 264.679 565.66 265.055 566.789 265.055C567.907 265.055 568.518 264.667 568.518 263.643V263.549C568.518 262.526 567.918 262.149 566.789 262.149C565.66 262.149 565.13 262.526 565.13 263.608ZM574.851 263.949H573.087V263.538C573.087 262.679 573.687 262.279 574.416 261.997L575.24 261.667C575.804 261.444 576.075 261.267 576.075 260.867C576.075 260.467 575.839 260.161 574.475 260.161C573.04 260.161 572.605 260.538 572.605 261.291V261.749H570.864V261.432C570.864 259.903 571.91 258.55 574.604 258.55C576.922 258.55 577.839 259.561 577.839 260.808C577.839 262.032 577.004 262.526 576.228 262.832L575.357 263.173C574.922 263.349 574.851 263.514 574.851 263.808V263.949ZM574.993 266.549H572.969V264.632H574.993V266.549Z" fill="black"/>
<path d="M461.049 285.155H459.92V278.149H465.493V279.163H461.049V281.338H465.336V282.342H461.049V285.155ZM467.462 285.155H466.333V279.958H467.368V281.359H467.441C467.598 280.522 468.163 279.853 469.229 279.853C470.411 279.853 470.923 280.7 470.923 281.683V282.363H469.804V281.903C469.804 281.16 469.49 280.815 468.717 280.815C467.828 280.815 467.462 281.307 467.462 282.237V285.155ZM474.246 285.259C472.542 285.259 471.423 284.297 471.423 282.561C471.423 280.941 472.532 279.853 474.226 279.853C475.836 279.853 476.934 280.742 476.934 282.321C476.934 282.509 476.923 282.655 476.892 282.812H472.479C472.521 283.816 473.013 284.349 474.215 284.349C475.303 284.349 475.752 283.994 475.752 283.377V283.293H476.881V283.387C476.881 284.496 475.794 285.259 474.246 285.259ZM474.205 280.742C473.054 280.742 472.552 281.254 472.49 282.185H475.867V282.164C475.867 281.202 475.313 280.742 474.205 280.742ZM480.394 285.259C478.689 285.259 477.57 284.297 477.57 282.561C477.57 280.941 478.679 279.853 480.373 279.853C481.983 279.853 483.081 280.742 483.081 282.321C483.081 282.509 483.07 282.655 483.039 282.812H478.626C478.668 283.816 479.16 284.349 480.362 284.349C481.45 284.349 481.899 283.994 481.899 283.377V283.293H483.029V283.387C483.029 284.496 481.941 285.259 480.394 285.259ZM480.352 280.742C479.202 280.742 478.7 281.254 478.637 282.185H482.014V282.164C482.014 281.202 481.46 280.742 480.352 280.742ZM489.196 285.155H488.077V279.163H485.316V278.149H491.946V279.163H489.196V285.155ZM493.736 285.155H492.606V279.958H493.641V281.359H493.715C493.872 280.522 494.436 279.853 495.503 279.853C496.684 279.853 497.197 280.7 497.197 281.683V282.363H496.078V281.903C496.078 281.16 495.764 280.815 494.99 280.815C494.102 280.815 493.736 281.307 493.736 282.237V285.155ZM499.035 279.351H497.906V278.149H499.035V279.351ZM499.035 285.155H497.906V279.958H499.035V285.155ZM501.608 285.259C500.531 285.259 499.851 284.757 499.851 283.9C499.851 283.095 500.499 282.676 501.524 282.561L503.887 282.31V282.007C503.887 281.15 503.511 280.847 502.517 280.847C501.555 280.847 501.085 281.16 501.085 281.924V281.965H499.966V281.924C499.966 280.742 500.949 279.853 502.601 279.853C504.253 279.853 504.995 280.752 504.995 281.997V285.155H503.96V283.858H503.887C503.615 284.736 502.789 285.259 501.608 285.259ZM500.98 283.827C500.98 284.245 501.263 284.444 501.911 284.444C503.092 284.444 503.887 284.004 503.887 282.98L501.848 283.21C501.263 283.283 500.98 283.419 500.98 283.827ZM507.133 285.155H506.003V278.149H507.133V285.155Z" fill="black"/>
<path d="M59.7244 330.04L58.4157 315.796L88.2862 299.913L99.2698 309.014L119.559 298.226L58.856 249.775L33.5882 263.21L39.9047 340.579L59.7244 330.04ZM55.6128 285.597L54.0082 272.836L55.2293 272.186L65.0061 280.603L73.3642 287.485L56.6443 296.375L55.6128 285.597Z" fill="black"/>
<defs>
<filter id="filter0_f_101_98" x="203.036" y="107.671" width="313.025" height="318.499" filterUnits="userSpaceOnUse" color-interpolation-filters="sRGB">
<feFlood flood-opacity="0" result="BackgroundImageFix"/>
<feBlend mode="normal" in="SourceGraphic" in2="BackgroundImageFix" result="shape"/>
<feGaussianBlur stdDeviation="65.3521" result="effect1_foregroundBlur_101_98"/>
</filter>
<clipPath id="clip0_101_98">
<rect width="15.6845" height="15.6845" fill="white" transform="translate(333.96 134.575) rotate(-28)"/>
</clipPath>
<clipPath id="clip1_101_98">
<rect width="15.6845" height="15.6845" fill="white" transform="translate(98.5345 259.753) rotate(-28)"/>
</clipPath>
</defs>
</svg>
